<svg width="30" height="31" viewBox="0 0 30 31" fill="none" xmlns="http://www.w3.org/2000/svg">
<g clip-path="url(#clip0_23_1496)">
<path d="M27.1875 5.07764H2.8125C2.29395 5.07764 1.875 5.49658 1.875 6.01514V24.7651C1.875 25.2837 2.29395 25.7026 2.8125 25.7026H27.1875C27.7061 25.7026 28.125 25.2837 28.125 24.7651V6.01514C28.125 5.49658 27.7061 5.07764 27.1875 5.07764ZM26.0156 8.32373V23.5933H3.98438V8.32373L3.17578 7.69385L4.32715 6.21436L5.58105 7.18994H24.4219L25.6758 6.21436L26.8271 7.69385L26.0156 8.32373ZM24.4219 7.18701L15 14.5112L5.57812 7.18701L4.32422 6.21143L3.17285 7.69092L3.98145 8.3208L13.9893 16.1021C14.2771 16.3256 14.6311 16.447 14.9956 16.447C15.3601 16.447 15.7141 16.3256 16.002 16.1021L26.0156 8.32373L26.8242 7.69385L25.6729 6.21436L24.4219 7.18701Z" fill="#4C4C4C" fill-opacity="0.58"/>
</g>
<defs>
<clipPath id="clip0_23_1496">
<rect width="30" height="30" fill="white" transform="translate(0 0.390137)"/>
</clipPath>
</defs>
</svg>
