<svg width="36" height="36" viewBox="0 0 36 36" fill="none" xmlns="http://www.w3.org/2000/svg">
<path d="M28.1248 21.375C27.1304 21.3745 26.1641 21.705 25.3784 22.3144L22.1285 19.7831C22.3739 19.2207 22.5003 18.6136 22.4998 18C22.4998 17.8959 22.4998 17.7919 22.4885 17.6892L24.349 17.069C24.9376 17.9768 25.8335 18.6422 26.8727 18.9432C27.9119 19.2442 29.0248 19.1608 30.0075 18.7081C30.9901 18.2555 31.7768 17.4639 32.2235 16.4785C32.6701 15.4931 32.7467 14.3797 32.4393 13.3424C32.132 12.3051 31.4611 11.4132 30.5498 10.8302C29.6384 10.2472 28.5475 10.012 27.4768 10.1678C26.4062 10.3236 25.4275 10.8599 24.7201 11.6784C24.0126 12.497 23.6238 13.5431 23.6248 14.625C23.6248 14.729 23.6248 14.8331 23.636 14.9358L21.7756 15.5559C21.3677 14.9254 20.8086 14.407 20.1491 14.0479C19.4896 13.6888 18.7507 13.5004 17.9998 13.5C17.7515 13.5005 17.5036 13.5212 17.2587 13.5619L16.2968 11.3906C17.1274 10.727 17.6961 9.79074 17.9023 8.74782C18.1085 7.70489 17.9388 6.62264 17.4233 5.69288C16.9078 4.76312 16.0798 4.0459 15.0859 3.66834C14.0921 3.29079 12.9967 3.27728 11.9939 3.63021C10.9911 3.98314 10.1456 4.67971 9.6073 5.59647C9.069 6.51323 8.87266 7.59097 9.05307 8.63867C9.23349 9.68636 9.77901 10.6364 10.5929 11.3203C11.4069 12.0042 12.4367 12.3778 13.4998 12.375C13.7481 12.3745 13.9959 12.3538 14.2409 12.3131L15.2027 14.4787C14.3871 15.1243 13.8209 16.0332 13.6011 17.0499C13.3813 18.0667 13.5214 19.1282 13.9976 20.0531L10.3821 23.265C9.47225 22.6516 8.36991 22.3911 7.28172 22.5323C6.19352 22.6736 5.19419 23.2068 4.47104 24.0321C3.74789 24.8574 3.35056 25.9182 3.35353 27.0155C3.35651 28.1128 3.75957 29.1714 4.48719 29.9927C5.2148 30.8141 6.21701 31.342 7.30595 31.4773C8.39489 31.6126 9.4958 31.3462 10.4023 30.7278C11.3089 30.1095 11.9588 29.1818 12.2302 28.1186C12.5017 27.0554 12.3761 25.9297 11.877 24.9525L15.4924 21.7406C16.2752 22.2677 17.2043 22.5345 18.1475 22.5032C19.0907 22.4719 20 22.1441 20.7462 21.5662L23.996 24.0975C23.7514 24.6582 23.6251 25.2633 23.6248 25.875C23.6248 26.765 23.8887 27.635 24.3832 28.375C24.8776 29.1151 25.5804 29.6918 26.4027 30.0324C27.225 30.373 28.1298 30.4622 29.0027 30.2885C29.8756 30.1149 30.6774 29.6863 31.3068 29.057C31.9361 28.4276 32.3647 27.6258 32.5383 26.7529C32.7119 25.88 32.6228 24.9752 32.2822 24.1529C31.9416 23.3306 31.3649 22.6278 30.6248 22.1334C29.8848 21.6389 29.0148 21.375 28.1248 21.375ZM28.1248 12.375C28.5698 12.375 29.0048 12.5069 29.3748 12.7542C29.7448 13.0014 30.0332 13.3528 30.2035 13.7639C30.3738 14.1751 30.4184 14.6275 30.3315 15.0639C30.2447 15.5004 30.0304 15.9013 29.7158 16.216C29.4011 16.5306 29.0002 16.7449 28.5637 16.8318C28.1273 16.9186 27.6749 16.874 27.2637 16.7037C26.8526 16.5334 26.5012 16.245 26.254 15.875C26.0067 15.505 25.8748 15.07 25.8748 14.625C25.8748 14.0282 26.1118 13.456 26.5338 13.034C26.9557 12.612 27.528 12.375 28.1248 12.375ZM11.2498 7.87498C11.2498 7.42998 11.3817 6.99496 11.629 6.62495C11.8762 6.25494 12.2276 5.96655 12.6387 5.79626C13.0499 5.62596 13.5023 5.5814 13.9387 5.66822C14.3752 5.75503 14.7761 5.96933 15.0908 6.28399C15.4054 6.59866 15.6197 6.99957 15.7065 7.43603C15.7934 7.87249 15.7488 8.32489 15.5785 8.73602C15.4082 9.14716 15.1198 9.49856 14.7498 9.74579C14.3798 9.99302 13.9448 10.125 13.4998 10.125C12.903 10.125 12.3307 9.88793 11.9088 9.46597C11.4868 9.04402 11.2498 8.47172 11.2498 7.87498ZM7.87477 29.25C7.42977 29.25 6.99475 29.118 6.62474 28.8708C6.25473 28.6236 5.96634 28.2722 5.79604 27.861C5.62575 27.4499 5.58119 26.9975 5.66801 26.561C5.75482 26.1246 5.96911 25.7237 6.28378 25.409C6.59845 25.0943 6.99936 24.88 7.43582 24.7932C7.87228 24.7064 8.32468 24.751 8.73581 24.9213C9.14694 25.0916 9.49835 25.3799 9.74558 25.75C9.99281 26.12 10.1248 26.555 10.1248 27C10.1248 27.5967 9.88772 28.169 9.46576 28.591C9.04381 29.0129 8.47151 29.25 7.87477 29.25ZM28.1248 28.125C27.6798 28.125 27.2448 27.993 26.8747 27.7458C26.5047 27.4986 26.2163 27.1472 26.046 26.736C25.8757 26.3249 25.8312 25.8725 25.918 25.436C26.0048 24.9996 26.2191 24.5987 26.5338 24.284C26.8485 23.9693 27.2494 23.755 27.6858 23.6682C28.1223 23.5814 28.5747 23.626 28.9858 23.7963C29.3969 23.9666 29.7483 24.2549 29.9956 24.625C30.2428 24.995 30.3748 25.43 30.3748 25.875C30.3748 26.4717 30.1377 27.044 29.7158 27.466C29.2938 27.8879 28.7215 28.125 28.1248 28.125Z" fill="#FE6F1F"/>
</svg>
