<svg width="30" height="31" viewBox="0 0 30 31" fill="none" xmlns="http://www.w3.org/2000/svg">
<g clip-path="url(#clip0_23_1489)">
<path d="M15.1073 0.579102C8.95781 0.579102 3.75 5.81645 3.75 12.0208C3.75 18.5177 9.78609 25.1618 13.8464 29.8314C13.8619 29.8502 14.5182 30.5791 15.3267 30.5791H15.3985C16.2071 30.5791 16.8586 29.8502 16.875 29.8314C20.6855 25.451 26.25 18.2285 26.25 12.0208C26.25 5.81645 22.1878 0.579102 15.1073 0.579102ZM15.4833 28.5738C15.4505 28.6066 15.4026 28.6432 15.3604 28.6737C15.3173 28.6441 15.2704 28.6066 15.2358 28.5738L14.7454 28.0099C10.8961 23.5938 5.625 17.5465 5.625 12.0208C5.625 6.83504 9.9675 2.45363 15.1073 2.45363C21.5095 2.45363 24.375 7.25832 24.375 12.0208C24.375 16.2157 21.383 21.7854 15.4833 28.5738ZM15.0328 6.25613C11.9264 6.25613 9.40778 8.77473 9.40778 11.8811C9.40778 14.9875 11.9264 17.5061 15.0328 17.5061C18.1392 17.5061 20.6578 14.9875 20.6578 11.8811C20.6578 8.77473 18.1392 6.25613 15.0328 6.25613ZM15.0328 15.6311C12.9651 15.6311 11.2396 13.908 11.2396 11.8399C11.2396 9.77223 12.922 8.08988 14.9896 8.08988C17.0587 8.08988 18.7396 9.77223 18.7396 11.8399C18.7406 13.908 17.1018 15.6311 15.0328 15.6311Z" fill="#4C4C4C" fill-opacity="0.58"/>
</g>
<defs>
<clipPath id="clip0_23_1489">
<rect width="30" height="30" fill="white" transform="translate(0 0.589844)"/>
</clipPath>
</defs>
</svg>
