<svg width="30" height="31" viewBox="0 0 30 31" fill="none" xmlns="http://www.w3.org/2000/svg">
<g clip-path="url(#clip0_23_1461)">
<path d="M25.6963 7.79297L22.5762 4.67578C22.1953 4.29492 21.6855 4.08105 21.1465 4.08105C20.6074 4.08105 20.0977 4.29199 19.7168 4.67578L16.3564 8.03027C15.9756 8.41113 15.7617 8.92383 15.7617 9.46289C15.7617 10.0049 15.9727 10.5117 16.3564 10.8955L18.9814 13.5234C18.3834 14.9168 17.5242 16.1827 16.4502 17.2529C15.375 18.334 14.1182 19.1865 12.7236 19.79L10.0986 17.1621C9.71777 16.7812 9.20801 16.5674 8.66895 16.5674C8.40306 16.5664 8.13965 16.6185 7.89415 16.7206C7.64865 16.8227 7.426 16.9728 7.23926 17.1621L3.87598 20.5166C3.49512 20.8975 3.28125 21.4102 3.28125 21.9492C3.28125 22.4912 3.49219 22.998 3.87598 23.3818L6.99316 26.499C7.64355 27.1494 8.54004 27.5215 9.45996 27.5215C9.65039 27.5215 9.83496 27.5068 10.0225 27.4746C13.9014 26.8359 17.751 24.7705 20.8594 21.665C23.9648 18.5537 26.0273 14.7041 26.6719 10.8223C26.8564 9.7207 26.4873 8.58691 25.6963 7.79297ZM24.5947 10.4736C24.0234 13.9277 22.166 17.373 19.3682 20.1709C16.5703 22.9688 13.1279 24.8262 9.67383 25.3975C9.24024 25.4707 8.79492 25.3242 8.47852 25.0107L5.41699 21.9492L8.66309 18.7002L12.1729 22.2158L12.1992 22.2422L12.832 22.0078C14.7508 21.3024 16.4932 20.1881 17.9384 18.7423C19.3837 17.2965 20.4974 15.5537 21.2022 13.6348L21.4365 13.002L17.8975 9.46582L21.1436 6.2168L24.2051 9.27832C24.5215 9.59473 24.668 10.04 24.5947 10.4736Z" fill="#4C4C4C" fill-opacity="0.58"/>
</g>
<defs>
<clipPath id="clip0_23_1461">
<rect width="30" height="30" fill="white" transform="translate(0 0.799805)"/>
</clipPath>
</defs>
</svg>
