<svg width="14" height="14" viewBox="0 0 14 14" fill="none" xmlns="http://www.w3.org/2000/svg">
<g clip-path="url(#clip0_23_2373)">
<g clip-path="url(#clip1_23_2373)">
<path d="M8.78221 16.5041C4.37014 16.5041 0.780273 12.9143 0.780273 8.50218C0.780273 4.09011 4.37014 0.500244 8.78221 0.500244C13.1943 0.500244 16.7841 4.09011 16.7841 8.50218C16.7841 12.9143 13.1943 16.5041 8.78221 16.5041ZM8.78221 1.50049C4.92228 1.50049 1.78052 4.64125 1.78052 8.50218C1.78052 12.3631 4.92228 15.5039 8.78221 15.5039C12.6421 15.5039 15.7839 12.3631 15.7839 8.50218C15.7839 4.64125 12.6421 1.50049 8.78221 1.50049Z" fill="#99A2A3"/>
<path d="M6.58203 5.90156L7.98237 4.50122L11.9833 8.50219L7.98237 12.5032L6.58203 11.1028L9.18266 8.50219L6.58203 5.90156Z" fill="#99A2A3"/>
</g>
</g>
<defs>
<clipPath id="clip0_23_2373">
<rect width="12.8" height="12.8" fill="white" transform="translate(0.780273 0.500244)"/>
</clipPath>
<clipPath id="clip1_23_2373">
<rect width="16.0039" height="16.0039" fill="white" transform="translate(0.780273 0.500244)"/>
</clipPath>
</defs>
</svg>
