<svg width="143" height="143" viewBox="0 0 143 143" fill="none" xmlns="http://www.w3.org/2000/svg">
<path fill-rule="evenodd" clip-rule="evenodd" d="M5.28125 142.625H142.812V132.438H10.375V0H0.1875V137.531L5.28125 142.625ZM20.5625 117.156V35.6562L25.6562 30.5625H46.0312L51.125 35.6562V117.156L46.0312 122.25H25.6562L20.5625 117.156ZM40.9375 112.062V40.75H30.75V112.062H40.9375ZM102.062 15.2812V117.156L107.156 122.25H127.531L132.625 117.156V15.2812L127.531 10.1875H107.156L102.062 15.2812ZM122.438 20.375V112.062H112.25V20.375H122.438ZM61.3125 117.156V56.0312L66.4062 50.9375H86.7812L91.875 56.0312V117.156L86.7812 122.25H66.4062L61.3125 117.156ZM81.6875 112.062V61.125H71.5V112.062H81.6875Z" fill="black"/>
</svg>
